<mxfile host="app.diagrams.net" modified="2023-08-04T01:10:28.434Z" agent="Mozilla/5.0 (Windows NT 10.0; Win64; x64) AppleWebKit/537.36 (KHTML, like Gecko) Chrome/115.0.0.0 Safari/537.36" etag="po_msqBnILXOnptOvPcR" version="21.6.6" type="device">
  <diagram id="EnI7LButDnZIBvIXs8Sy" name="Page-1">
    <mxGraphModel dx="1444" dy="1944" grid="1" gridSize="10" guides="1" tooltips="1" connect="1" arrows="1" fold="1" page="1" pageScale="1" pageWidth="850" pageHeight="1100" math="0" shadow="0">
      <root>
        <mxCell id="0" />
        <mxCell id="1" parent="0" />
        <mxCell id="V0Q13042x-b2j6D4VTw8-4" style="edgeStyle=orthogonalEdgeStyle;rounded=0;orthogonalLoop=1;jettySize=auto;html=1;exitX=1;exitY=0.5;exitDx=0;exitDy=0;" parent="1" source="V0Q13042x-b2j6D4VTw8-2" target="V0Q13042x-b2j6D4VTw8-7" edge="1">
          <mxGeometry relative="1" as="geometry">
            <mxPoint x="510" y="240" as="targetPoint" />
          </mxGeometry>
        </mxCell>
        <mxCell id="V0Q13042x-b2j6D4VTw8-5" style="edgeStyle=orthogonalEdgeStyle;rounded=0;orthogonalLoop=1;jettySize=auto;html=1;exitX=0;exitY=0.5;exitDx=0;exitDy=0;" parent="1" source="V0Q13042x-b2j6D4VTw8-2" target="V0Q13042x-b2j6D4VTw8-6" edge="1">
          <mxGeometry relative="1" as="geometry">
            <mxPoint x="300" y="240" as="targetPoint" />
          </mxGeometry>
        </mxCell>
        <mxCell id="yWWVWhRe9GuPvTwCDRys-6" style="edgeStyle=orthogonalEdgeStyle;rounded=0;orthogonalLoop=1;jettySize=auto;html=1;exitX=0.5;exitY=0;exitDx=0;exitDy=0;entryX=0.5;entryY=1;entryDx=0;entryDy=0;" edge="1" parent="1" source="V0Q13042x-b2j6D4VTw8-2" target="yWWVWhRe9GuPvTwCDRys-5">
          <mxGeometry relative="1" as="geometry" />
        </mxCell>
        <mxCell id="V0Q13042x-b2j6D4VTw8-2" value="PROGRAM" style="whiteSpace=wrap;html=1;strokeWidth=2;rounded=1;glass=0;shadow=0;fontFamily=Verdana;fontStyle=1;fontSize=12;" parent="1" vertex="1">
          <mxGeometry x="370" y="220" width="75" height="40" as="geometry" />
        </mxCell>
        <mxCell id="VLyif92qPhnk4-9t6htu-9" style="edgeStyle=orthogonalEdgeStyle;rounded=0;orthogonalLoop=1;jettySize=auto;html=1;exitX=0;exitY=0.75;exitDx=0;exitDy=0;entryX=0;entryY=0.5;entryDx=0;entryDy=0;" parent="1" source="V0Q13042x-b2j6D4VTw8-6" edge="1">
          <mxGeometry relative="1" as="geometry">
            <mxPoint x="150" y="280" as="targetPoint" />
            <Array as="points">
              <mxPoint x="180" y="255" />
              <mxPoint x="180" y="280" />
            </Array>
          </mxGeometry>
        </mxCell>
        <mxCell id="VLyif92qPhnk4-9t6htu-10" style="edgeStyle=orthogonalEdgeStyle;rounded=0;orthogonalLoop=1;jettySize=auto;html=1;exitX=0;exitY=0.25;exitDx=0;exitDy=0;entryX=0;entryY=0.5;entryDx=0;entryDy=0;" parent="1" source="V0Q13042x-b2j6D4VTw8-6" edge="1">
          <mxGeometry relative="1" as="geometry">
            <mxPoint x="150" y="200" as="targetPoint" />
            <Array as="points">
              <mxPoint x="210" y="220" />
              <mxPoint x="180" y="220" />
              <mxPoint x="180" y="200" />
            </Array>
          </mxGeometry>
        </mxCell>
        <mxCell id="OkTbVbcPe1jkvOhVyq-D-13" style="edgeStyle=orthogonalEdgeStyle;rounded=0;orthogonalLoop=1;jettySize=auto;html=1;exitX=0.5;exitY=0;exitDx=0;exitDy=0;entryX=0.5;entryY=1;entryDx=0;entryDy=0;" parent="1" source="V0Q13042x-b2j6D4VTw8-6" target="OkTbVbcPe1jkvOhVyq-D-11" edge="1">
          <mxGeometry relative="1" as="geometry" />
        </mxCell>
        <mxCell id="6VCHtt-4AwPIwCEVT980-7" style="edgeStyle=orthogonalEdgeStyle;rounded=0;orthogonalLoop=1;jettySize=auto;html=1;exitX=0.5;exitY=1;exitDx=0;exitDy=0;entryX=1;entryY=0.5;entryDx=0;entryDy=0;" parent="1" source="V0Q13042x-b2j6D4VTw8-6" target="6VCHtt-4AwPIwCEVT980-6" edge="1">
          <mxGeometry relative="1" as="geometry">
            <Array as="points">
              <mxPoint x="250" y="320" />
              <mxPoint x="200" y="320" />
              <mxPoint x="200" y="360" />
            </Array>
          </mxGeometry>
        </mxCell>
        <mxCell id="V0Q13042x-b2j6D4VTw8-6" value="User&lt;br&gt;Interface" style="whiteSpace=wrap;html=1;fontFamily=Verdana;fontStyle=1" parent="1" vertex="1">
          <mxGeometry x="210.0000000000001" y="210" width="80" height="60" as="geometry" />
        </mxCell>
        <mxCell id="OkTbVbcPe1jkvOhVyq-D-5" style="edgeStyle=orthogonalEdgeStyle;rounded=0;orthogonalLoop=1;jettySize=auto;html=1;exitX=1;exitY=0.25;exitDx=0;exitDy=0;entryX=0;entryY=0.5;entryDx=0;entryDy=0;" parent="1" source="V0Q13042x-b2j6D4VTw8-7" target="OkTbVbcPe1jkvOhVyq-D-1" edge="1">
          <mxGeometry relative="1" as="geometry" />
        </mxCell>
        <mxCell id="OkTbVbcPe1jkvOhVyq-D-6" style="edgeStyle=orthogonalEdgeStyle;rounded=0;orthogonalLoop=1;jettySize=auto;html=1;exitX=1;exitY=0.75;exitDx=0;exitDy=0;entryX=0;entryY=0.5;entryDx=0;entryDy=0;" parent="1" source="V0Q13042x-b2j6D4VTw8-7" target="OkTbVbcPe1jkvOhVyq-D-2" edge="1">
          <mxGeometry relative="1" as="geometry" />
        </mxCell>
        <mxCell id="V0Q13042x-b2j6D4VTw8-7" value="Calculations" style="whiteSpace=wrap;html=1;fontFamily=Verdana;fontStyle=1" parent="1" vertex="1">
          <mxGeometry x="520" y="210" width="80" height="60" as="geometry" />
        </mxCell>
        <mxCell id="VLyif92qPhnk4-9t6htu-1" style="edgeStyle=orthogonalEdgeStyle;rounded=0;orthogonalLoop=1;jettySize=auto;html=1;exitX=0.5;exitY=1;exitDx=0;exitDy=0;" parent="1" source="V0Q13042x-b2j6D4VTw8-2" target="VLyif92qPhnk4-9t6htu-2" edge="1">
          <mxGeometry relative="1" as="geometry">
            <mxPoint x="450" y="330" as="targetPoint" />
            <mxPoint x="520" y="330" as="sourcePoint" />
          </mxGeometry>
        </mxCell>
        <mxCell id="OkTbVbcPe1jkvOhVyq-D-7" style="edgeStyle=orthogonalEdgeStyle;rounded=0;orthogonalLoop=1;jettySize=auto;html=1;exitX=1;exitY=0.5;exitDx=0;exitDy=0;" parent="1" source="VLyif92qPhnk4-9t6htu-2" target="OkTbVbcPe1jkvOhVyq-D-4" edge="1">
          <mxGeometry relative="1" as="geometry" />
        </mxCell>
        <mxCell id="OkTbVbcPe1jkvOhVyq-D-8" style="edgeStyle=orthogonalEdgeStyle;rounded=0;orthogonalLoop=1;jettySize=auto;html=1;exitX=0;exitY=0.5;exitDx=0;exitDy=0;" parent="1" source="VLyif92qPhnk4-9t6htu-2" target="OkTbVbcPe1jkvOhVyq-D-3" edge="1">
          <mxGeometry relative="1" as="geometry" />
        </mxCell>
        <mxCell id="VLyif92qPhnk4-9t6htu-2" value="Testing" style="whiteSpace=wrap;html=1;fontFamily=Verdana;fontStyle=1" parent="1" vertex="1">
          <mxGeometry x="367.5000000000001" y="350" width="80" height="60" as="geometry" />
        </mxCell>
        <mxCell id="VLyif92qPhnk4-9t6htu-11" value="Inputs for&lt;br&gt;graph data" style="ellipse;whiteSpace=wrap;html=1;fontFamily=Verdana;" parent="1" vertex="1">
          <mxGeometry x="40" y="170" width="110" height="60" as="geometry" />
        </mxCell>
        <mxCell id="VLyif92qPhnk4-9t6htu-12" value="Displaying graphs" style="ellipse;whiteSpace=wrap;html=1;fontFamily=Verdana;" parent="1" vertex="1">
          <mxGeometry x="40" y="250" width="110" height="60" as="geometry" />
        </mxCell>
        <mxCell id="6VCHtt-4AwPIwCEVT980-4" style="edgeStyle=orthogonalEdgeStyle;rounded=0;orthogonalLoop=1;jettySize=auto;html=1;exitX=0.5;exitY=0;exitDx=0;exitDy=0;" parent="1" source="OkTbVbcPe1jkvOhVyq-D-1" target="6VCHtt-4AwPIwCEVT980-3" edge="1">
          <mxGeometry relative="1" as="geometry" />
        </mxCell>
        <mxCell id="6VCHtt-4AwPIwCEVT980-5" style="edgeStyle=orthogonalEdgeStyle;rounded=0;orthogonalLoop=1;jettySize=auto;html=1;exitX=0.5;exitY=0;exitDx=0;exitDy=0;entryX=0.5;entryY=1;entryDx=0;entryDy=0;" parent="1" source="OkTbVbcPe1jkvOhVyq-D-1" target="6VCHtt-4AwPIwCEVT980-1" edge="1">
          <mxGeometry relative="1" as="geometry" />
        </mxCell>
        <mxCell id="yWWVWhRe9GuPvTwCDRys-3" style="edgeStyle=orthogonalEdgeStyle;rounded=0;orthogonalLoop=1;jettySize=auto;html=1;exitX=0.5;exitY=0;exitDx=0;exitDy=0;entryX=0.5;entryY=1;entryDx=0;entryDy=0;" edge="1" parent="1" source="OkTbVbcPe1jkvOhVyq-D-1" target="yWWVWhRe9GuPvTwCDRys-2">
          <mxGeometry relative="1" as="geometry" />
        </mxCell>
        <mxCell id="yWWVWhRe9GuPvTwCDRys-4" style="edgeStyle=orthogonalEdgeStyle;rounded=0;orthogonalLoop=1;jettySize=auto;html=1;exitX=0.5;exitY=0;exitDx=0;exitDy=0;" edge="1" parent="1" source="OkTbVbcPe1jkvOhVyq-D-1" target="yWWVWhRe9GuPvTwCDRys-1">
          <mxGeometry relative="1" as="geometry">
            <Array as="points">
              <mxPoint x="695" y="150" />
              <mxPoint x="515" y="150" />
            </Array>
          </mxGeometry>
        </mxCell>
        <mxCell id="OkTbVbcPe1jkvOhVyq-D-1" value="Graph calculations" style="ellipse;whiteSpace=wrap;html=1;fontFamily=Verdana;" parent="1" vertex="1">
          <mxGeometry x="640" y="170" width="110" height="60" as="geometry" />
        </mxCell>
        <mxCell id="OkTbVbcPe1jkvOhVyq-D-2" value="Velocity and gravity calcs" style="ellipse;whiteSpace=wrap;html=1;fontFamily=Verdana;" parent="1" vertex="1">
          <mxGeometry x="640" y="250" width="110" height="60" as="geometry" />
        </mxCell>
        <mxCell id="OkTbVbcPe1jkvOhVyq-D-3" value="Testing UI" style="ellipse;whiteSpace=wrap;html=1;fontFamily=Verdana;" parent="1" vertex="1">
          <mxGeometry x="210" y="350" width="110" height="60" as="geometry" />
        </mxCell>
        <mxCell id="OkTbVbcPe1jkvOhVyq-D-4" value="Testing calculations" style="ellipse;whiteSpace=wrap;html=1;fontFamily=Verdana;" parent="1" vertex="1">
          <mxGeometry x="490" y="350" width="110" height="60" as="geometry" />
        </mxCell>
        <mxCell id="OkTbVbcPe1jkvOhVyq-D-11" value="Matplotlib modules for anim" style="ellipse;whiteSpace=wrap;html=1;fontFamily=Verdana;" parent="1" vertex="1">
          <mxGeometry x="195" y="90" width="110" height="60" as="geometry" />
        </mxCell>
        <mxCell id="6VCHtt-4AwPIwCEVT980-1" value="Vert dist over time" style="ellipse;whiteSpace=wrap;html=1;fontFamily=Verdana;" parent="1" vertex="1">
          <mxGeometry x="580" y="70" width="110" height="60" as="geometry" />
        </mxCell>
        <mxCell id="6VCHtt-4AwPIwCEVT980-3" value="Vert dist over hori dist" style="ellipse;whiteSpace=wrap;html=1;fontFamily=Verdana;" parent="1" vertex="1">
          <mxGeometry x="700" y="70" width="110" height="60" as="geometry" />
        </mxCell>
        <mxCell id="6VCHtt-4AwPIwCEVT980-6" value="Aesthetics" style="ellipse;whiteSpace=wrap;html=1;fontFamily=Verdana;" parent="1" vertex="1">
          <mxGeometry x="40" y="330" width="110" height="60" as="geometry" />
        </mxCell>
        <mxCell id="yWWVWhRe9GuPvTwCDRys-1" value="Kinetic force and potential force over time" style="ellipse;whiteSpace=wrap;html=1;fontFamily=Verdana;" vertex="1" parent="1">
          <mxGeometry x="460" y="70" width="110" height="60" as="geometry" />
        </mxCell>
        <mxCell id="yWWVWhRe9GuPvTwCDRys-2" value="Velocity and acceleration over time" style="ellipse;whiteSpace=wrap;html=1;fontFamily=Verdana;" vertex="1" parent="1">
          <mxGeometry x="640" width="110" height="60" as="geometry" />
        </mxCell>
        <mxCell id="yWWVWhRe9GuPvTwCDRys-9" style="edgeStyle=orthogonalEdgeStyle;rounded=0;orthogonalLoop=1;jettySize=auto;html=1;exitX=0.5;exitY=0;exitDx=0;exitDy=0;entryX=0.5;entryY=1;entryDx=0;entryDy=0;" edge="1" parent="1" source="yWWVWhRe9GuPvTwCDRys-5" target="yWWVWhRe9GuPvTwCDRys-7">
          <mxGeometry relative="1" as="geometry" />
        </mxCell>
        <mxCell id="yWWVWhRe9GuPvTwCDRys-10" style="edgeStyle=orthogonalEdgeStyle;rounded=0;orthogonalLoop=1;jettySize=auto;html=1;exitX=0.5;exitY=0;exitDx=0;exitDy=0;entryX=0.5;entryY=1;entryDx=0;entryDy=0;" edge="1" parent="1" source="yWWVWhRe9GuPvTwCDRys-5" target="yWWVWhRe9GuPvTwCDRys-8">
          <mxGeometry relative="1" as="geometry" />
        </mxCell>
        <mxCell id="yWWVWhRe9GuPvTwCDRys-5" value="Back-end" style="whiteSpace=wrap;html=1;fontFamily=Verdana;fontStyle=1" vertex="1" parent="1">
          <mxGeometry x="367.5000000000001" y="100" width="80" height="60" as="geometry" />
        </mxCell>
        <mxCell id="yWWVWhRe9GuPvTwCDRys-7" value="Comments" style="ellipse;whiteSpace=wrap;html=1;fontFamily=Verdana;" vertex="1" parent="1">
          <mxGeometry x="290" y="-20" width="110" height="60" as="geometry" />
        </mxCell>
        <mxCell id="yWWVWhRe9GuPvTwCDRys-8" value="Pep-8 compliant" style="ellipse;whiteSpace=wrap;html=1;fontFamily=Verdana;" vertex="1" parent="1">
          <mxGeometry x="420" y="-20" width="110" height="60" as="geometry" />
        </mxCell>
      </root>
    </mxGraphModel>
  </diagram>
</mxfile>
